<?xml version="1.0" encoding="utf-8"?>
<!-- Generator: Adobe Illustrator 21.1.0, SVG Export Plug-In . SVG Version: 6.00 Build 0)  -->
<svg version="1.1" id="Layer_1" xmlns="http://www.w3.org/2000/svg" xmlns:xlink="http://www.w3.org/1999/xlink" x="0px" y="0px"
    viewBox="0 0 230 230" style="enable-background:new 0 0 230 230;" xml:space="preserve">
<style type="text/css">
  .st0{fill:url(#SVGID_1_);}
  .st1{fill:#FC7A7A;}
  .st2{fill:url(#SVGID_2_);}
  .st3{fill:#E7BA88;}
  .st4{fill:#E5C7AA;}
  .st5{fill:url(#SVGID_3_);}
  .st6{fill:#EEEE91;}
  .st7{fill:#EDEBB2;}
  .st8{fill:#EAE8CA;}
  .st9{fill:url(#SVGID_4_);}
  .st10{fill:#51EE67;}
  .st11{fill:#A2EDA9;}
  .st12{fill:#B5EAB8;}
  .st13{fill:#C8E8C9;}
  .st14{fill:#1B1CE0;}
  .st15{fill:#6263E1;}
  .st16{fill:#797EE0;}
  .st17{fill:#9098DD;}
  .st18{fill:#B4BADB;}
  .st19{fill:#CACCD8;}
  .st20{fill:url(#SVGID_5_);}
  .st21{fill:url(#SVGID_6_);}
  .st22{fill:url(#SVGID_7_);}
  .st23{fill:url(#SVGID_8_);}

  #Red {
    transform-origin: 50% 50%;
    animation: 2s infinite ease-in-out 1s rotater reverse;
  }
  #Orange {
    transform-origin: 50% 50%;
    animation: 2s infinite ease-in-out 0.8s rotater reverse;
  }
  #Yellow {
    transform-origin: 50% 50%;
    animation: 2s infinite ease-in-out 0.6s rotater reverse;
  }
  #Green {
    transform-origin: 50% 50%;
    animation: 2s infinite ease-in-out 0.4s rotater reverse;
  }
  #Blue {
    transform-origin: 50% 50%;
    animation: 2s infinite ease-in-out 0.2s rotater reverse;
  }

  @keyframes rotater {
    0% { transform: rotate(0deg) }
    100% { transform: rotate(360deg) }
  }
</style>
<g id="Red">
  <linearGradient id="SVGID_1_" gradientUnits="userSpaceOnUse" x1="81.2293" y1="12.0631" x2="82.896" y2="24.7297">
    <stop  offset="0" style="stop-color:#FE0100"/>
    <stop  offset="1" style="stop-color:#940100"/>
  </linearGradient>
  <path class="st0" d="M115.5,15.1c-7.4,4.1-14.2,9-20.2,14.7h0c-0.4,0.4-0.8,0.7-1.1,1.1c-0.4,0.4-0.8,0.7-1.1,1.1
    c-0.7,0.7-1.5,1.5-2.2,2.2c-0.7,0.8-1.4,1.5-2.1,2.3c0,0,0,0,0,0c-1,1.1-1.9,2.2-2.8,3.3c-0.2,0.2-0.3,0.4-0.5,0.6
    c-0.4,0.5-0.9,1.1-1.2,1.6c-0.5,0.6-0.9,1.2-1.4,1.8c0,0,0,0,0,0c-0.5,0.7-1,1.4-1.5,2.2c-0.2,0.2-0.3,0.5-0.5,0.7
    c-0.4,0.6-0.8,1.2-1.2,1.8c-0.1,0.2-0.3,0.4-0.4,0.6v0l0,0v0c-0.6,0.9-1.2,1.8-1.7,2.8c-3.9,6.5-7,13.5-9.3,20.8c0,0,0,0,0,0
    c-2.8,8.7-4.3,17.8-4.6,27.1v0c-0.1,1.8-0.1,3.6,0,5.5c0,1.6,0.1,3.2,0.2,4.9c0.1,0.8,0.1,1.6,0.2,2.5c0.1,1,0.2,2,0.4,3
    c0.1,0.9,0.2,1.8,0.4,2.6c0.1,1,0.3,1.9,0.5,2.8c0.2,0.9,0.4,1.9,0.6,2.8c0.1,0.4,0.2,0.8,0.3,1.2c0,0,0,0,0,0c0,0,0,0.1,0,0.2
    c0,0,0,0,0,0c0.1,0.2,0.1,0.5,0.2,0.7c0.1,0.3,0.1,0.6,0.2,0.9c0.1,0.2,0.1,0.5,0.2,0.7c0.1,0.2,0.1,0.5,0.2,0.7
    c0.1,0.3,0.2,0.6,0.2,0.9c0.1,0.3,0.2,0.6,0.3,0.9c0.1,0.2,0.1,0.3,0.2,0.5c0.1,0.3,0.2,0.7,0.3,1c0.1,0.3,0.2,0.6,0.3,0.9
    c0,0.1,0,0.1,0.1,0.2c0,0,0,0.1,0.1,0.1c0.1,0.4,0.3,0.7,0.4,1.1c0.1,0.3,0.3,0.6,0.4,1c0,0,0,0,0,0c0,0,0,0.1,0.1,0.1
    c0.2,0.4,0.3,0.8,0.5,1.2c0.2,0.3,0.3,0.6,0.5,1c0,0,0,0,0,0c0.1,0.2,0.2,0.4,0.3,0.6c-8.8-16.3-12.5-34.1-11.8-51.4
    c0.4-8.7,1.9-17.3,4.5-25.6c2.5-8,6-15.7,10.4-22.9c4.4-7,9.6-13.6,15.7-19.5c6-5.8,12.8-10.8,20.4-15.1
    C109.7,3.4,112.9,8,115.5,15.1z"/>
  <path class="st1" d="M90.9,71.2c-0.9,0.5-1.7,1-2.6,1.5c0,0,0,0,0,0c-0.7,0.4-1.4,0.9-2,1.3c-0.1,0.1-0.2,0.1-0.3,0.2
    c-0.6,0.4-1.1,0.8-1.6,1.2c-0.2,0.2-0.4,0.3-0.6,0.5c-0.4,0.3-0.8,0.7-1.2,1c-0.3,0.2-0.6,0.5-0.9,0.8c-0.3,0.3-0.6,0.5-0.9,0.8
    c-0.2,0.2-0.4,0.4-0.6,0.5c-0.2,0.1-0.3,0.3-0.5,0.5c-0.2,0.2-0.4,0.4-0.6,0.6c-0.3,0.3-0.7,0.7-1,1.1c0,0,0,0,0,0
    c-0.1,0.1-0.1,0.1-0.2,0.2c-0.1,0.1-0.2,0.3-0.4,0.4c-0.4,0.4-0.7,0.8-1,1.2c-0.1,0.1-0.1,0.2-0.2,0.3h0c-0.1,0.1-0.2,0.2-0.2,0.3
    c-0.3,0.4-0.7,0.8-1,1.3c-0.1,0.2-0.2,0.3-0.3,0.5c0,0-0.1,0.1-0.1,0.2c-0.3,0.4-0.6,0.8-0.9,1.3c-0.2,0.3-0.4,0.6-0.6,1
    c-0.2,0.3-0.4,0.7-0.6,1c-0.1,0.2-0.3,0.5-0.4,0.7c-0.1,0.2-0.2,0.4-0.3,0.6c-0.1,0.2-0.3,0.5-0.4,0.7c-0.2,0.4-0.5,0.9-0.7,1.3
    c0,0,0,0,0,0c0,0.1-0.1,0.2-0.1,0.2c-0.1,0.2-0.2,0.3-0.2,0.5c-0.2,0.5-0.5,1-0.7,1.4c0,0.1-0.1,0.2-0.2,0.3c0,0,0,0,0,0
    c0,0.1-0.1,0.2-0.2,0.4c-0.2,0.5-0.4,1-0.6,1.5c-0.1,0.2-0.1,0.3-0.2,0.5c0,0.1,0,0.1-0.1,0.2c-0.2,0.5-0.4,1-0.5,1.5
    c-0.1,0.4-0.2,0.7-0.4,1.1c-0.1,0.4-0.2,0.8-0.4,1.1c-0.1,0.2-0.2,0.5-0.2,0.8c0,0,0,0,0,0c0,0.2-0.1,0.4-0.1,0.6
    c-0.1,0.3-0.2,0.6-0.2,1c-0.1,0.5-0.2,0.9-0.3,1.3v0c-0.1,0.4-0.1,0.7-0.2,1c-0.1,0.4-0.2,0.9-0.2,1.3c0,0,0,0.1,0,0.1v0
    c-0.1,0.3-0.1,0.7-0.2,1c0,0.4-0.1,0.8-0.2,1.2c0,0,0,0.1,0,0.2c0,0,0,0.1,0,0.2c0,0.3-0.1,0.7-0.1,1c0,0.4-0.1,0.7-0.1,1.1
    c0,0.2,0,0.3,0,0.5c0,0.3,0,0.6,0,0.9c0,0.3,0,0.6,0,0.9c0,0.2,0,0.5,0,0.8c0,0,0,0,0,0c0,0.2,0,0.5,0,0.7c0,0.3,0,0.6,0,0.9
    c0,0.3,0,0.6,0,0.9c0,0.2,0,0.3,0,0.5c0,0,0,0,0,0c0,0.4,0,0.7,0.1,1.1c0,0.3,0.1,0.7,0.1,1c0,0.1,0,0.1,0,0.2c0,0,0,0.1,0,0.1
    c0,0,0,0.1,0,0.1v0c0,0.3,0.1,0.7,0.1,1c0,0.3,0.1,0.7,0.1,1c0,0,0,0,0,0c0,0,0,0.1,0,0.1c0,0,0,0.1,0,0.2c0,0,0,0.1,0,0.2
    c0,0.3,0.1,0.6,0.2,1c0.1,0.3,0.1,0.7,0.2,1v0c0,0,0,0,0,0c0,0.1,0.1,0.3,0.1,0.5c-0.1-0.4-0.2-0.8-0.3-1.2
    c-0.2-0.9-0.4-1.9-0.6-2.8c-0.2-0.9-0.3-1.9-0.5-2.8c-0.1-0.9-0.3-1.8-0.4-2.6c-0.1-1-0.2-2-0.4-3c-0.1-0.8-0.1-1.7-0.2-2.5
    c-0.1-1.6-0.2-3.3-0.2-4.9c0-1.8,0-3.7,0-5.5v0c0.3-9.3,1.9-18.5,4.6-27.1c0,0,0,0,0,0c2.3-7.3,5.4-14.2,9.3-20.8
    c0.6-0.9,1.1-1.9,1.7-2.8v0l0,0v0c0.1-0.2,0.2-0.4,0.4-0.6c0.4-0.6,0.8-1.2,1.2-1.8c0.1-0.2,0.3-0.5,0.5-0.7c0.5-0.7,1-1.4,1.5-2.2
    c0,0,0,0,0,0c0.4-0.6,0.9-1.2,1.4-1.8c0.4-0.5,0.8-1.1,1.2-1.6c0.2-0.2,0.3-0.4,0.5-0.6c0.9-1.1,1.8-2.2,2.8-3.3c0,0,0,0,0,0
    c0.7-0.8,1.4-1.5,2.1-2.3c0.7-0.8,1.5-1.5,2.2-2.2c0.4-0.4,0.7-0.8,1.1-1.1s0.8-0.7,1.1-1.1l0,0c6-5.7,12.8-10.6,20.2-14.7
    C120.5,29.2,122.6,53.3,90.9,71.2z"/>
</g>
<g id="Orange">
  <linearGradient id="SVGID_2_" gradientUnits="userSpaceOnUse" x1="65.7703" y1="17.7348" x2="67.4369" y2="31.4014">
    <stop  offset="0" style="stop-color:#EC8906"/>
    <stop  offset="1" style="stop-color:#824B03"/>
  </linearGradient>
  <path class="st2" d="M58.7,86.4c-0.7,17.4,3,35.1,11.8,51.4c0.1,0.2,0.2,0.4,0.3,0.6c0.2,0.3,0.3,0.6,0.5,0.9
    c0.2,0.4,0.5,0.8,0.7,1.2c0.2,0.3,0.4,0.7,0.6,1c0.2,0.3,0.4,0.6,0.6,1c0.3,0.4,0.6,0.9,0.9,1.3c0,0,0.1,0.1,0.1,0.2
    c0.1,0.2,0.2,0.3,0.3,0.5c0.3,0.4,0.6,0.9,1,1.3c0.1,0.1,0.2,0.2,0.2,0.3c0,0,0,0,0,0c0.1,0.1,0.2,0.2,0.2,0.3
    c0.3,0.4,0.7,0.8,1,1.2c0.1,0.1,0.2,0.3,0.4,0.4c0.1,0.1,0.1,0.1,0.2,0.2c0,0,0,0,0,0c0.1,0.2,0.3,0.3,0.4,0.5
    c-19.2-20.3-28.2-46.5-27.2-72.5c0.3-8.4,1.7-16.7,4.1-24.8c2.4-7.9,5.7-15.6,10.1-22.9c4.3-7.1,9.5-13.8,15.7-19.9
    c0,0,4.4,3.6,8.7,9.8c-6.1,5.9-11.4,12.4-15.7,19.5c-4.4,7.2-7.9,14.9-10.4,22.9C60.6,69.1,59.1,77.7,58.7,86.4z"/>
  <path class="st3" d="M95.2,29.8c-6.2,5.8-11.5,12.3-16.1,19.3c-4.7,7.3-8.4,15.2-11,23.5c-2.8,8.7-4.3,17.8-4.6,27.1
    c-0.1,3.3,0,6.7,0.2,10c0.1,0.8,0.1,1.6,0.2,2.4c0.3,3.4,0.8,6.9,1.5,10.3c0.2,0.9,0.4,1.8,0.6,2.7c0,0.1,0,0.1,0,0.2
    c0.1,0.2,0.1,0.5,0.2,0.7c0.1,0.3,0.1,0.6,0.2,0.9c0.1,0.2,0.1,0.5,0.2,0.7c0.1,0.2,0.1,0.5,0.2,0.7c0.1,0.3,0.2,0.6,0.2,0.9
    c0.1,0.3,0.2,0.6,0.3,0.9c0.1,0.2,0.1,0.3,0.2,0.5c0.1,0.3,0.2,0.7,0.3,1c0.1,0.3,0.2,0.6,0.3,0.9c0,0.1,0,0.1,0.1,0.2
    c0,0,0,0.1,0.1,0.1c0.1,0.4,0.3,0.7,0.4,1.1c0.1,0.3,0.3,0.6,0.4,1c0,0,0,0,0,0c0,0,0,0.1,0.1,0.1c0.2,0.4,0.3,0.8,0.5,1.2
    c0.2,0.3,0.3,0.6,0.5,1c0,0,0,0,0,0c0.1,0.2,0.2,0.4,0.3,0.6c-8.8-16.3-12.5-34.1-11.8-51.4c0.4-8.7,1.9-17.3,4.5-25.6
    c2.5-8,6-15.7,10.4-22.9c4.4-7,9.6-13.6,15.7-19.5C91.5,21.6,93.6,25.4,95.2,29.8z"/>
  <path class="st4" d="M80.3,79.1c-0.2,0.2-0.3,0.3-0.5,0.5c-0.2,0.2-0.4,0.4-0.6,0.6c-0.3,0.4-0.7,0.7-1,1.1c0,0,0,0,0,0
    c-0.1,0.1-0.1,0.1-0.2,0.2c-0.1,0.1-0.2,0.3-0.4,0.4c-0.4,0.4-0.7,0.8-1,1.2c-0.1,0.1-0.1,0.2-0.2,0.3c0,0,0,0,0,0
    c-0.1,0.1-0.2,0.2-0.2,0.3c-0.3,0.4-0.7,0.8-1,1.3c-0.1,0.2-0.2,0.3-0.3,0.5c0,0-0.1,0.1-0.1,0.2c-0.3,0.4-0.6,0.9-0.9,1.3
    c-0.2,0.3-0.4,0.6-0.6,1c-0.2,0.3-0.4,0.6-0.6,1c-0.1,0.2-0.3,0.5-0.4,0.7c-0.1,0.2-0.2,0.4-0.3,0.6c-0.1,0.2-0.3,0.5-0.4,0.7
    c-0.2,0.4-0.5,0.9-0.7,1.3c0,0,0,0,0,0c0,0.1-0.1,0.2-0.1,0.2c-0.1,0.2-0.2,0.3-0.2,0.5c-0.2,0.5-0.5,1-0.7,1.4
    c0,0.1-0.1,0.2-0.2,0.3v0c0,0.1-0.1,0.2-0.2,0.4c-0.2,0.5-0.4,1-0.6,1.5c-0.1,0.2-0.1,0.3-0.2,0.5c0,0.1,0,0.1-0.1,0.2
    c-0.2,0.5-0.4,1-0.5,1.5c-0.1,0.4-0.2,0.7-0.4,1.1s-0.2,0.7-0.4,1.1c-0.1,0.2-0.1,0.5-0.2,0.8c0,0.2-0.1,0.4-0.1,0.6
    c-0.1,0.3-0.2,0.6-0.2,1c-0.1,0.5-0.2,0.9-0.3,1.3v0c-0.1,0.4-0.1,0.7-0.2,1c-0.1,0.4-0.2,0.9-0.2,1.3c0,0,0,0.1,0,0.1v0
    c-0.1,0.3-0.1,0.7-0.2,1c0,0.4-0.1,0.8-0.2,1.2c0,0,0,0.1,0,0.2c0,0,0,0.1,0,0.2c0,0.3-0.1,0.7-0.1,1c0,0.4-0.1,0.7-0.1,1.1
    c0,0.2,0,0.3,0,0.5c0,0.3,0,0.6,0,0.9c0,0.3,0,0.6,0,0.9c0,0.2,0,0.5,0,0.8s0,0.5,0,0.8c0,0.3,0,0.6,0,0.9c0,0.3,0,0.6,0,0.9
    c0,0.2,0,0.3,0,0.5c0,0,0,0,0,0c0,0,0,0,0,0c0,0.4,0,0.7,0.1,1.1c0,0.3,0.1,0.7,0.1,1c0,0.1,0,0.1,0,0.2c0,0,0,0.1,0,0.2
    c0,0,0,0.1,0,0.1c0,0,0,0,0,0c0,0.3,0.1,0.7,0.1,1c0,0.3,0.1,0.7,0.1,1c0,0,0,0,0,0c0,0,0,0.1,0,0.1c0,0,0,0.1,0,0.2
    c0,0.1,0,0.1,0,0.2c0,0.3,0.1,0.6,0.2,1c0.1,0.4,0.1,0.7,0.2,1c0,0,0,0,0,0v0c0,0.2,0.1,0.3,0.1,0.5c-0.2-0.9-0.4-1.8-0.6-2.7
    c-0.7-3.4-1.2-6.9-1.5-10.3c-0.1-0.8-0.2-1.6-0.2-2.4c-0.2-3.4-0.3-6.7-0.2-10c0.3-9.3,1.9-18.5,4.6-27.1c2.6-8.3,6.4-16.2,11-23.5
    c4.5-7.1,9.9-13.6,16.1-19.3C99.9,42.5,99.6,60,80.3,79.1z"/>
</g>
<g id="Yellow">
  <linearGradient id="SVGID_3_" gradientUnits="userSpaceOnUse" x1="51.0201" y1="30.542" x2="53.0201" y2="43.8753">
    <stop  offset="0" style="stop-color:#EEED08"/>
    <stop  offset="1" style="stop-color:#9E9D05"/>
  </linearGradient>
  <path class="st5" d="M88.1,157.2C56.6,138,39.5,104,40.3,69.4c0.2-8.3,1.4-16.6,3.7-24.7c2.3-8,5.6-15.8,10-23.3
    c0,0,5.1,2.3,10.9,7.2c-4.4,7.2-7.7,15-10.1,22.9c-2.4,8.1-3.8,16.4-4.1,24.8c-1,25.9,8.1,52.2,27.2,72.5c0.2,0.2,0.4,0.4,0.6,0.6
    c0.2,0.2,0.4,0.4,0.6,0.6c0.3,0.3,0.7,0.7,1,1c0.3,0.3,0.6,0.5,0.8,0.8c0.3,0.3,0.6,0.5,0.9,0.8c0.4,0.3,0.8,0.7,1.2,1
    c0.1,0,0.1,0.1,0.2,0.1c0.1,0.1,0.3,0.2,0.4,0.4c0.4,0.3,0.9,0.7,1.3,1c0.1,0.1,0.2,0.1,0.3,0.2c0,0,0,0,0,0
    c0.1,0.1,0.2,0.1,0.3,0.2c0.4,0.3,0.9,0.6,1.3,0.9c0.2,0.1,0.3,0.2,0.5,0.3c0.1,0,0.1,0.1,0.2,0.2c0,0,0,0,0,0
    C87.7,157,87.9,157.1,88.1,157.2z"/>
  <path class="st6" d="M78,148.7c-19.2-20.3-28.2-46.5-27.2-72.5c0.3-8.4,1.7-16.7,4.1-24.8c2.4-7.9,5.7-15.6,10.1-22.9
    c2.9,2.5,6,5.6,8.7,9.3c-4.4,7.2-7.9,14.9-10.4,22.9c-2.6,8.3-4.1,16.9-4.5,25.6c-0.7,17.4,3,35.1,11.8,51.4
    c0.1,0.2,0.2,0.4,0.3,0.6c0.2,0.3,0.3,0.6,0.5,0.9c0.2,0.4,0.5,0.8,0.7,1.2c0.2,0.3,0.4,0.7,0.6,1c0.2,0.3,0.4,0.6,0.6,1
    c0.3,0.4,0.6,0.9,0.9,1.3c0,0,0.1,0.1,0.1,0.2c0.1,0.2,0.2,0.3,0.3,0.5c0.3,0.4,0.6,0.9,1,1.3c0.1,0.1,0.2,0.2,0.2,0.3c0,0,0,0,0,0
    c0.1,0.1,0.2,0.2,0.2,0.3c0.3,0.4,0.7,0.8,1,1.2c0.1,0.1,0.2,0.3,0.4,0.4c0.1,0.1,0.1,0.1,0.2,0.2c0,0,0,0,0,0
    C77.7,148.4,77.9,148.6,78,148.7z"/>
  <path class="st7" d="M70.2,137.3c0.1,0.2,0.2,0.4,0.3,0.6c-8.8-16.3-12.5-34.1-11.8-51.4c0.4-8.7,1.9-17.3,4.5-25.6
    c2.5-8,6-15.7,10.4-22.9c2.3,3.2,4.2,7,5.6,11.2c-4.7,7.3-8.4,15.2-11,23.5c-2.8,8.7-4.3,17.8-4.6,27.1c-0.1,3.3,0,6.7,0.2,10
    c0.1,0.8,0.1,1.6,0.2,2.4c0.3,3.4,0.8,6.9,1.5,10.3c0.2,0.9,0.4,1.8,0.6,2.7c0,0.1,0,0.1,0,0.2c0.1,0.2,0.1,0.5,0.2,0.7
    c0.1,0.3,0.1,0.6,0.2,0.9c0.1,0.2,0.1,0.5,0.2,0.7c0.1,0.2,0.1,0.5,0.2,0.7c0.1,0.3,0.2,0.6,0.2,0.9c0.1,0.3,0.2,0.6,0.3,0.9
    c0.1,0.2,0.1,0.3,0.2,0.5c0.1,0.3,0.2,0.7,0.3,1c0.1,0.3,0.2,0.6,0.3,0.9c0,0.1,0,0.1,0.1,0.2c0,0,0,0.1,0.1,0.1
    c0.1,0.4,0.3,0.7,0.4,1.1c0.1,0.3,0.3,0.6,0.4,1c0,0,0,0,0,0c0,0,0,0.1,0.1,0.1c0.2,0.4,0.3,0.8,0.5,1.2
    C69.9,136.6,70,136.9,70.2,137.3C70.2,137.2,70.2,137.3,70.2,137.3z"/>
  <path class="st8" d="M72.1,89.4c-0.1,0.2-0.2,0.4-0.3,0.6c-0.1,0.2-0.3,0.5-0.4,0.7c-0.2,0.4-0.5,0.9-0.7,1.3c0,0,0,0,0,0
    c0,0.1-0.1,0.2-0.1,0.2c-0.1,0.2-0.2,0.3-0.2,0.5c-0.2,0.5-0.5,1-0.7,1.4c0,0.1-0.1,0.2-0.2,0.3v0c0,0.1-0.1,0.2-0.2,0.4
    c-0.2,0.5-0.4,1-0.6,1.5c-0.1,0.2-0.1,0.3-0.2,0.5c0,0.1,0,0.1-0.1,0.2c-0.2,0.5-0.4,1-0.5,1.5c-0.1,0.4-0.2,0.7-0.4,1.1
    s-0.2,0.7-0.4,1.1c-0.1,0.2-0.1,0.5-0.2,0.8c0,0.2-0.1,0.4-0.1,0.6c-0.1,0.3-0.2,0.6-0.2,1c-0.1,0.5-0.2,0.9-0.3,1.3v0
    c-0.1,0.4-0.1,0.7-0.2,1c-0.1,0.4-0.2,0.9-0.2,1.3c0,0,0,0.1,0,0.1v0c-0.1,0.3-0.1,0.7-0.2,1c0,0.4-0.1,0.8-0.2,1.2
    c0,0,0,0.1,0,0.2c0,0,0,0.1,0,0.2c0,0.3-0.1,0.7-0.1,1c0,0.4-0.1,0.7-0.1,1.1c0,0.2,0,0.3,0,0.5c0,0.3,0,0.6,0,0.9
    c0,0.3,0,0.6,0,0.9c0,0.2,0,0.5,0,0.8s0,0.5,0,0.8c0,0.3,0,0.6,0,0.9c0,0.3,0,0.6,0,0.9c0,0.2,0,0.3,0,0.5c0,0,0,0,0,0c0,0,0,0,0,0
    c0,0.4,0,0.7,0.1,1.1c0,0.3,0.1,0.7,0.1,1c0,0.1,0,0.1,0,0.2c0,0,0,0.1,0,0.2c0,0,0,0.1,0,0.1c0,0,0,0,0,0c0,0.3,0.1,0.7,0.1,1
    c0,0.3,0.1,0.7,0.1,1c0,0,0,0,0,0c0,0,0,0.1,0,0.1c0,0,0,0.1,0,0.2c0,0.1,0,0.1,0,0.2c0,0.3,0.1,0.6,0.2,1c0.1,0.4,0.1,0.7,0.2,1
    c0,0,0,0,0,0v0c0,0.2,0.1,0.3,0.1,0.5c-0.2-0.9-0.4-1.8-0.6-2.7c-0.7-3.4-1.2-6.9-1.5-10.3c-0.1-0.8-0.2-1.6-0.2-2.4
    c-0.2-3.4-0.3-6.7-0.2-10c0.3-9.3,1.9-18.5,4.6-27.1c2.6-8.3,6.4-16.2,11-23.5C82.4,59.4,81.7,72.8,72.1,89.4z"/>
</g>
<g id="Green">
  <linearGradient id="SVGID_4_" gradientUnits="userSpaceOnUse" x1="37.8587" y1="44.2548" x2="43.192" y2="60.2548">
    <stop  offset="0" style="stop-color:#02EC17"/>
    <stop  offset="1" style="stop-color:#01800C"/>
  </linearGradient>
  <path class="st9" d="M100.1,162.8c-43.9-12.8-72.5-53.2-72-97.1c0.1-8.3,1.2-16.7,3.5-25.1c0,0,5.6,0.9,12.4,4.1
    c-2.3,8.1-3.5,16.5-3.7,24.7C39.5,104,56.6,138,88.1,157.2c0.2,0.1,0.5,0.3,0.7,0.4s0.5,0.3,0.7,0.4c0.4,0.2,0.8,0.5,1.3,0.8
    c0.3,0.2,0.7,0.4,1,0.5c0.3,0.2,0.7,0.4,1,0.5c0.5,0.2,1,0.5,1.4,0.7c0.2,0.1,0.5,0.2,0.7,0.3c0.6,0.3,1.2,0.5,1.9,0.8
    c0.1,0,0.2,0.1,0.3,0.1c0.8,0.3,1.5,0.5,2.3,0.8c0,0,0,0,0,0C99.7,162.7,99.9,162.7,100.1,162.8z"/>
  <path class="st10" d="M88.1,157.2C56.6,138,39.5,104,40.3,69.4c0.2-8.3,1.4-16.6,3.7-24.7c3.5,1.6,7.2,3.8,10.8,6.8
    c-2.4,8.1-3.8,16.4-4.1,24.8c-1,25.9,8.1,52.2,27.2,72.5c0.2,0.2,0.4,0.4,0.6,0.6c0.2,0.2,0.4,0.4,0.6,0.6c0.3,0.3,0.7,0.7,1,1
    c0.3,0.3,0.6,0.5,0.8,0.8c0.3,0.3,0.6,0.5,0.9,0.8c0.4,0.3,0.8,0.7,1.2,1c0.1,0,0.1,0.1,0.2,0.1c0.1,0.1,0.3,0.2,0.4,0.4
    c0.4,0.3,0.9,0.7,1.3,1c0.1,0.1,0.2,0.1,0.3,0.2c0,0,0,0,0,0c0.1,0.1,0.2,0.1,0.3,0.2c0.4,0.3,0.9,0.6,1.3,0.9
    c0.2,0.1,0.3,0.2,0.5,0.3c0.1,0,0.1,0.1,0.2,0.2c0,0,0,0,0,0C87.7,157,87.9,157.1,88.1,157.2z"/>
  <path class="st11" d="M78,148.7c-19.2-20.3-28.2-46.5-27.2-72.5c0.3-8.4,1.7-16.7,4.1-24.8c3,2.5,5.9,5.6,8.3,9.3
    c-2.6,8.3-4.1,16.9-4.5,25.6c-0.7,17.4,3,35.1,11.8,51.4c0.1,0.2,0.2,0.4,0.3,0.6c0.2,0.3,0.3,0.6,0.5,0.9c0.2,0.4,0.5,0.8,0.7,1.2
    c0.2,0.3,0.4,0.7,0.6,1c0.2,0.3,0.4,0.6,0.6,1c0.3,0.4,0.6,0.9,0.9,1.3c0,0,0.1,0.1,0.1,0.2c0.1,0.2,0.2,0.3,0.3,0.5
    c0.3,0.4,0.6,0.9,1,1.3c0.1,0.1,0.2,0.2,0.2,0.3c0,0,0,0,0,0c0.1,0.1,0.2,0.2,0.2,0.3c0.3,0.4,0.7,0.8,1,1.2
    c0.1,0.1,0.2,0.3,0.4,0.4c0.1,0.1,0.1,0.1,0.2,0.2c0,0,0,0,0,0C77.7,148.4,77.9,148.6,78,148.7z"/>
  <path class="st12" d="M70.5,137.9c-8.8-16.3-12.5-34.1-11.8-51.4c0.4-8.7,1.9-17.3,4.5-25.6c2.2,3.4,3.9,7.3,5,11.9
    c-2.8,8.7-4.3,17.8-4.6,27.1c-0.1,3.3,0,6.7,0.2,10c0.1,0.8,0.1,1.6,0.2,2.4c0.3,3.4,0.8,6.9,1.5,10.3c0.2,0.9,0.4,1.8,0.6,2.7
    c0,0.1,0,0.1,0,0.2c0.1,0.2,0.1,0.5,0.2,0.7c0.1,0.3,0.1,0.6,0.2,0.9c0.1,0.2,0.1,0.5,0.2,0.7c0.1,0.2,0.1,0.5,0.2,0.7
    c0.1,0.3,0.2,0.6,0.2,0.9c0.1,0.3,0.2,0.6,0.3,0.9c0.1,0.2,0.1,0.3,0.2,0.5c0.1,0.3,0.2,0.7,0.3,1c0.1,0.3,0.2,0.6,0.3,0.9
    c0,0.1,0,0.1,0.1,0.2c0,0,0,0.1,0.1,0.1c0.1,0.4,0.3,0.7,0.4,1.1c0.1,0.3,0.3,0.6,0.4,1c0,0,0,0,0,0c0,0,0,0.1,0.1,0.1
    c0.2,0.4,0.3,0.8,0.5,1.2c0.2,0.3,0.3,0.6,0.5,1c0,0,0,0,0,0C70.3,137.5,70.4,137.7,70.5,137.9z"/>
  <path class="st13" d="M66.8,101.6c0,0.2-0.1,0.4-0.1,0.6c-0.1,0.3-0.2,0.6-0.2,1c-0.1,0.5-0.2,0.9-0.3,1.3v0
    c-0.1,0.4-0.1,0.7-0.2,1c-0.1,0.4-0.2,0.9-0.2,1.3c0,0,0,0.1,0,0.1v0c-0.1,0.3-0.1,0.7-0.2,1c0,0.4-0.1,0.8-0.2,1.2
    c0,0,0,0.1,0,0.2c0,0,0,0.1,0,0.2c0,0.3-0.1,0.7-0.1,1c0,0.4-0.1,0.7-0.1,1.1c0,0.2,0,0.3,0,0.5c0,0.3,0,0.6,0,0.9
    c0,0.3,0,0.6,0,0.9c0,0.2,0,0.5,0,0.8s0,0.5,0,0.8c0,0.3,0,0.6,0,0.9c0,0.3,0,0.6,0,0.9c0,0.2,0,0.3,0,0.5c0,0,0,0,0,0c0,0,0,0,0,0
    c0,0.4,0,0.7,0.1,1.1c0,0.3,0.1,0.7,0.1,1c0,0.1,0,0.1,0,0.2c0,0,0,0.1,0,0.2c0,0,0,0.1,0,0.1c0,0,0,0,0,0c0,0.3,0.1,0.7,0.1,1
    c0,0.3,0.1,0.7,0.1,1c0,0,0,0,0,0c0,0,0,0.1,0,0.1c0,0,0,0.1,0,0.2c0,0.1,0,0.1,0,0.2c0,0.3,0.1,0.6,0.2,1c0.1,0.4,0.1,0.7,0.2,1
    c0,0,0,0,0,0v0c0,0.2,0.1,0.3,0.1,0.5c-0.2-0.9-0.4-1.8-0.6-2.7c-0.7-3.4-1.2-6.9-1.5-10.3c-0.1-0.8-0.2-1.6-0.2-2.4
    c-0.2-3.4-0.3-6.7-0.2-10c0.3-9.3,1.9-18.5,4.6-27.1C70,80.4,70,89.9,66.8,101.6z"/>
</g>
<g id="Blue">
  <path class="st14" d="M28.1,65.7C20.6,64.5,15,65.1,15,65.1c0,55.2,44.8,100,100,100c-5.2,0-10.2-0.8-14.9-2.3
    C56.2,150,27.6,109.6,28.1,65.7z"/>
  <path class="st15" d="M88.8,157.7c-0.2-0.1-0.5-0.3-0.7-0.4C56.6,138,39.5,104,40.3,69.4c-4.2-1.9-8.5-3-12.2-3.7
    c-0.5,43.9,28.1,84.3,72,97.1c-0.2-0.1-0.4-0.1-0.6-0.2c0,0,0,0,0,0c-0.8-0.3-1.5-0.5-2.3-0.8c-0.1,0-0.2-0.1-0.3-0.1
    c-0.6-0.2-1.3-0.5-1.9-0.8c-0.2-0.1-0.5-0.2-0.7-0.3c-0.5-0.2-1-0.4-1.4-0.7c-0.3-0.2-0.7-0.3-1-0.5c-0.3-0.2-0.7-0.4-1-0.6
    c-0.4-0.2-0.9-0.5-1.3-0.7C89.3,157.9,89,157.8,88.8,157.7z"/>
  <path class="st16" d="M78,148.7c-19.2-20.3-28.2-46.5-27.3-72.4c-3.3-3-6.9-5.2-10.5-6.8C39.5,104,56.6,138,88.1,157.2
    c-0.2-0.1-0.4-0.2-0.6-0.4c0,0,0,0,0,0c-0.1,0-0.2-0.1-0.2-0.2c-0.2-0.1-0.3-0.2-0.5-0.3c-0.4-0.3-0.9-0.6-1.3-0.9
    c-0.1-0.1-0.2-0.1-0.3-0.2c0,0,0,0,0,0c-0.1-0.1-0.2-0.2-0.3-0.2c-0.4-0.3-0.9-0.7-1.3-1c-0.1-0.1-0.3-0.2-0.4-0.4
    c-0.1,0-0.1-0.1-0.2-0.1c-0.4-0.3-0.8-0.7-1.2-1c-0.3-0.3-0.6-0.5-0.8-0.8c-0.3-0.3-0.6-0.5-0.9-0.8c-0.4-0.3-0.7-0.7-1.1-1.1
    c-0.2-0.2-0.4-0.4-0.6-0.6C78.4,149.1,78.2,148.9,78,148.7z"/>
  <path class="st17" d="M70.8,138.5c-0.1-0.2-0.2-0.4-0.3-0.6c-8.8-16.3-12.5-34.1-11.8-51.4c-2.2-4.1-5-7.4-7.9-10.1
    c-1,25.9,8.1,52.2,27.3,72.4c-0.1-0.2-0.3-0.3-0.4-0.5c0,0,0,0,0,0c-0.1-0.1-0.1-0.1-0.2-0.2c-0.1-0.1-0.2-0.3-0.4-0.4
    c-0.3-0.4-0.7-0.8-1-1.2c-0.1-0.1-0.1-0.2-0.2-0.3c0,0,0,0,0,0c-0.1-0.1-0.2-0.2-0.2-0.3c-0.3-0.4-0.7-0.9-1-1.3
    c-0.1-0.2-0.2-0.3-0.3-0.5c0-0.1-0.1-0.1-0.1-0.2c-0.3-0.4-0.6-0.9-0.9-1.3c-0.2-0.3-0.4-0.6-0.6-1c-0.2-0.3-0.4-0.7-0.6-1
    c-0.2-0.4-0.5-0.8-0.7-1.2C71.1,139.1,71,138.8,70.8,138.5z"/>
  <path class="st18" d="M66.2,126.1c-0.1-0.2-0.1-0.5-0.2-0.7c-2-8.6-2.8-17.2-2.6-25.6c-1.1-5.2-2.8-9.6-4.8-13.4
    c-0.7,17.3,3,35.1,11.8,51.4c-0.1-0.2-0.2-0.4-0.3-0.6c0,0,0,0,0,0c0,0,0,0,0,0c-0.2-0.3-0.3-0.6-0.5-1c-0.2-0.4-0.4-0.8-0.5-1.2
    c0,0,0-0.1,0-0.1c0,0,0,0,0,0c-0.1-0.3-0.3-0.6-0.4-0.9c-0.2-0.4-0.3-0.7-0.4-1.1c0,0,0-0.1-0.1-0.1c0-0.1,0-0.1-0.1-0.2
    c-0.1-0.3-0.2-0.6-0.3-0.9c-0.1-0.3-0.2-0.7-0.3-1c-0.1-0.2-0.1-0.3-0.2-0.5c-0.1-0.3-0.2-0.6-0.3-0.9c-0.1-0.3-0.2-0.6-0.2-0.9
    c-0.1-0.2-0.1-0.5-0.2-0.7c-0.1-0.2-0.1-0.5-0.2-0.7C66.4,126.7,66.3,126.4,66.2,126.1z"/>
  <path class="st19" d="M65,114.6c0-5.5-0.6-10.4-1.5-14.8c-0.3,8.4,0.6,17,2.6,25.6c0-0.1,0-0.1,0-0.2c0-0.2-0.1-0.3-0.1-0.5
    c0,0,0,0,0,0c0,0,0,0,0,0c-0.1-0.3-0.1-0.7-0.2-1c-0.1-0.3-0.1-0.6-0.2-1c0-0.1,0-0.1,0-0.2c0-0.1,0-0.1,0-0.2c0,0,0-0.1,0-0.1
    c0,0,0,0,0,0c0-0.3-0.1-0.7-0.1-1c0-0.3-0.1-0.7-0.1-1c0,0,0,0,0,0c0,0,0-0.1,0-0.1c0,0,0-0.1,0-0.1c0-0.1,0-0.1,0-0.2
    c0-0.3-0.1-0.7-0.1-1c0-0.4,0-0.7-0.1-1.1c0,0,0,0,0,0c0,0,0,0,0,0c0-0.2,0-0.3,0-0.5c0-0.3,0-0.6,0-0.9c0-0.3,0-0.6,0-0.9
    C65,115.1,65,114.9,65,114.6z"/>
</g>
<linearGradient id="SVGID_5_" gradientUnits="userSpaceOnUse" x1="-408.4764" y1="27.8431" x2="-408.4764" y2="42.9994">
  <stop  offset="0" style="stop-color:#FE0100"/>
  <stop  offset="1" style="stop-color:#940100"/>
</linearGradient>
<rect x="-418.5" y="26.5" class="st20" width="20" height="20"/>
<rect x="-388.5" y="26.1" class="st1" width="20" height="20"/>
<linearGradient id="SVGID_6_" gradientUnits="userSpaceOnUse" x1="-408.4764" y1="60.5547" x2="-408.4764" y2="75.7109">
  <stop  offset="0" style="stop-color:#EC8906"/>
  <stop  offset="1" style="stop-color:#824B03"/>
</linearGradient>
<rect x="-418.5" y="59.2" class="st21" width="20" height="20"/>
<rect x="-388.5" y="59.2" class="st3" width="20" height="20"/>
<rect x="-358.5" y="59.2" class="st4" width="20" height="20"/>
<linearGradient id="SVGID_7_" gradientUnits="userSpaceOnUse" x1="-408.4764" y1="93.2662" x2="-408.4764" y2="108.4225">
  <stop  offset="0" style="stop-color:#EEED08"/>
  <stop  offset="1" style="stop-color:#9E9D05"/>
</linearGradient>
<rect x="-418.5" y="91.9" class="st22" width="20" height="20"/>
<rect x="-388.5" y="91.9" class="st6" width="20" height="20"/>
<rect x="-358.5" y="91.9" class="st7" width="20" height="20"/>
<rect x="-328.5" y="91.9" class="st8" width="20" height="20"/>
<linearGradient id="SVGID_8_" gradientUnits="userSpaceOnUse" x1="-408.4764" y1="125.9777" x2="-408.4764" y2="141.134">
  <stop  offset="0" style="stop-color:#02EC17"/>
  <stop  offset="1" style="stop-color:#01800C"/>
</linearGradient>
<rect x="-418.5" y="124.6" class="st23" width="20" height="20"/>
<rect x="-388.5" y="124.6" class="st10" width="20" height="20"/>
<rect x="-358.5" y="124.6" class="st11" width="20" height="20"/>
<rect x="-328.5" y="124.6" class="st12" width="20" height="20"/>
<rect x="-298.5" y="124.6" class="st13" width="20" height="20"/>
<rect x="-418.5" y="157.3" class="st14" width="20" height="20"/>
<rect x="-388.5" y="157.3" class="st15" width="20" height="20"/>
<rect x="-358.5" y="157.3" class="st16" width="20" height="20"/>
<rect x="-328.5" y="157.3" class="st17" width="20" height="20"/>
<rect x="-298.5" y="157.3" class="st18" width="20" height="20"/>
<rect x="-268.5" y="157.3" class="st19" width="20" height="20"/>
</svg>
